<?xml version="1.0" encoding="UTF-8"?>
<svg version="1.1" xmlns="http://www.w3.org/2000/svg" width="560" height="560">
<path d="M0 0 C184.8 0 369.6 0 560 0 C560 184.8 560 369.6 560 560 C375.2 560 190.4 560 0 560 C0 375.2 0 190.4 0 0 Z " fill="#FEFEFE" transform="translate(0,0)"/>
<path d="M0 0 C3.54121308 3.1236853 6.97446748 6.35064534 10.38916016 9.61181641 C11.31470703 10.48451172 12.24025391 11.35720703 13.19384766 12.25634766 C20.34415972 19.17371754 26.45734289 26.64290735 32.38916016 34.61181641 C33.02595703 35.46517578 33.66275391 36.31853516 34.31884766 37.19775391 C68.52267891 84.64177791 79.90215155 143.103156 70.64697266 200.48291016 C67.12811396 219.93437905 60.04466529 238.89394173 51.38916016 256.61181641 C51.0751123 257.25908691 50.76106445 257.90635742 50.4375 258.57324219 C41.50697478 276.73490586 29.22038594 292.90468089 15.38916016 307.61181641 C14.86467285 308.17030273 14.34018555 308.72878906 13.79980469 309.30419922 C-6.96583047 331.23167196 -32.30395384 347.66259999 -60.17333984 359.17431641 C-61.40455566 359.69469482 -61.40455566 359.69469482 -62.66064453 360.22558594 C-67.89968051 362.31242938 -71.97009528 363.07216009 -77.61083984 362.61181641 C-80.41888791 361.39092594 -82.02125204 360.49002788 -83.72769165 357.94822693 C-84.94625151 354.7244689 -84.86283434 351.92403534 -84.86621094 348.47924805 C-84.87164162 347.41241791 -84.87164162 347.41241791 -84.87718201 346.32403564 C-84.88406572 344.78155358 -84.88658336 343.23904721 -84.88523483 341.69655037 C-84.88426611 339.24353394 -84.89725666 336.79095165 -84.91421509 334.33799744 C-84.9603533 327.36412006 -84.98504369 320.39028453 -84.99169922 313.41625977 C-84.99675731 309.14501206 -85.02123111 304.87421215 -85.05702591 300.60311699 C-85.06673409 298.98668565 -85.0692057 297.37019195 -85.06385422 295.75374031 C-85.02521085 283.49511686 -86.05809458 271.8056659 -93.29833984 261.42431641 C-93.90033203 260.54388672 -94.50232422 259.66345703 -95.12255859 258.75634766 C-95.61369141 258.04865234 -96.10482422 257.34095703 -96.61083984 256.61181641 C-96.94083984 255.95181641 -97.27083984 255.29181641 -97.61083984 254.61181641 C-96.61624756 254.43175049 -96.61624756 254.43175049 -95.6015625 254.24804688 C-68.32742361 249.23985727 -38.85458352 242.59265064 -21.61083984 218.61181641 C-4.04435091 191.40098061 0.62027293 159.34143588 -5.61083984 127.61181641 C-8.38169779 116.84899349 -13.31606377 105.77724577 -21.17333984 97.73681641 C-23.61083984 94.61181641 -23.61083984 94.61181641 -23.61083984 90.73681641 C-23.18372488 88.7051344 -22.64529658 86.73254075 -22.07568359 84.73681641 C-18.02258739 69.36507377 -20.39295553 52.09220465 -26.61083984 37.61181641 C-44.89545 36.51959412 -62.59527395 45.01267105 -77.13330078 55.54956055 C-80.58902437 57.91810575 -82.1236712 58.62369857 -86.45458984 58.51806641 C-87.84613504 58.2456042 -89.23182574 57.94189788 -90.61083984 57.61181641 C-105.9306312 54.31203853 -120.53582736 53.21783511 -136.17333984 53.23681641 C-137.52138702 53.23450516 -137.52138702 53.23450516 -138.89666748 53.23214722 C-153.57926194 53.23499314 -167.43503499 54.31514642 -181.70849609 58.02587891 C-185.92920802 58.87797418 -189.15262017 59.35132559 -193.07568359 57.36181641 C-194.29964844 56.49556641 -194.29964844 56.49556641 -195.54833984 55.61181641 C-207.3579557 47.72809988 -218.94762703 42.41986495 -232.61083984 38.61181641 C-234.09583984 38.11681641 -234.09583984 38.11681641 -235.61083984 37.61181641 C-237.50554801 37.54326691 -239.40252324 37.52701268 -241.29833984 37.54931641 C-242.29220703 37.55833984 -243.28607422 37.56736328 -244.31005859 37.57666016 C-245.06931641 37.58826172 -245.82857422 37.59986328 -246.61083984 37.61181641 C-247.25978221 39.6733403 -247.90486624 41.73607898 -248.54833984 43.79931641 C-249.0878125 45.52214844 -249.0878125 45.52214844 -249.63818359 47.27978516 C-251.67377699 54.25312318 -251.79415859 60.69492911 -251.79833984 67.92431641 C-251.81058594 69.02710938 -251.82283203 70.12990234 -251.83544922 71.26611328 C-251.84655347 77.46598871 -251.25453933 82.65421786 -249.61083984 88.61181641 C-249.20992916 92.28758179 -249.20180422 93.93186109 -251.11474609 97.11181641 C-251.79408203 97.93681641 -252.47341797 98.76181641 -253.17333984 99.61181641 C-269.50491133 120.9729338 -271.82672767 146.42588838 -268.98583984 172.42431641 C-266.02146603 190.74953636 -259.74570487 208.38375787 -247.61083984 222.61181641 C-246.69044922 223.82417969 -246.69044922 223.82417969 -245.75146484 225.06103516 C-228.84188523 245.21058897 -200.21211931 250.73735114 -175.61083984 254.61181641 C-176.06974609 255.25505859 -176.52865234 255.89830078 -177.00146484 256.56103516 C-181.19318639 262.73413768 -183.83184712 268.46656718 -185.78662109 275.66650391 C-187.89748569 283.2095935 -187.89748569 283.2095935 -190.96630859 284.93994141 C-204.40745216 289.31526538 -217.51789006 290.91023706 -230.61083984 284.61181641 C-233.98583984 282.61181641 -233.98583984 282.61181641 -236.61083984 280.61181641 C-237.41005859 280.01755859 -238.20927734 279.42330078 -239.03271484 278.81103516 C-241.70046941 276.53535967 -243.48800539 274.29672155 -245.48583984 271.42431641 C-246.51644531 269.97412109 -246.51644531 269.97412109 -247.56787109 268.49462891 C-248.24205078 267.54330078 -248.91623047 266.59197266 -249.61083984 265.61181641 C-257.02580058 255.41823013 -265.02232458 247.6947181 -277.61083984 244.61181641 C-282.12202508 244.30369692 -286.24355751 244.37672525 -290.61083984 245.61181641 C-289.45146244 252.40245547 -284.82378354 254.81906571 -279.61083984 258.61181641 C-270.1811543 265.92675629 -265.05064848 274.43885726 -260.17333984 285.17431641 C-253.9591017 298.69374251 -246.3056141 306.58638912 -232.10302734 311.93212891 C-219.83363154 315.65723209 -207.33331 315.88031829 -194.81005859 313.04931641 C-192.61083984 312.61181641 -192.61083984 312.61181641 -188.61083984 312.61181641 C-188.51173814 318.62576524 -188.43926068 324.63923556 -188.39111328 330.65380859 C-188.37103564 332.69848921 -188.3437676 334.74311267 -188.30908203 336.78759766 C-188.26039466 339.73175177 -188.23783241 342.67514474 -188.22021484 345.61962891 C-188.1995697 346.5292337 -188.17892456 347.4388385 -188.15765381 348.37600708 C-188.15565166 354.07805162 -188.77781215 357.29165675 -192.61083984 361.61181641 C-200.50403597 364.24288178 -206.61704999 361.87910451 -213.92333984 358.73681641 C-214.88030762 358.33406494 -215.83727539 357.93131348 -216.82324219 357.51635742 C-240.64713223 347.2968414 -261.81636306 333.47478851 -280.61083984 315.61181641 C-281.16352539 315.09167969 -281.71621094 314.57154297 -282.28564453 314.03564453 C-320.14426332 278.19099848 -345.26602401 225.63665743 -346.87333679 173.22322083 C-347.2079892 158.3342012 -347.22684368 143.31048798 -344.61083984 128.61181641 C-344.40458984 127.40138672 -344.19833984 126.19095703 -343.98583984 124.94384766 C-335.92683107 81.48930604 -316.38499535 43.38428726 -285.61083984 11.61181641 C-284.83095703 10.79197266 -284.05107422 9.97212891 -283.24755859 9.12744141 C-269.22727362 -5.31619142 -252.22009867 -17.0142645 -234.47363281 -26.40185547 C-232.73111957 -27.32449682 -231.00055352 -28.26960348 -229.27099609 -29.21630859 C-155.86901635 -67.96836449 -61.94543313 -53.38310591 0 0 Z " fill="#171516" transform="translate(416.61083984375,124.38818359375)"/>
<path d="M0 0 C-0.33 1.32 -0.66 2.64 -1 4 C-2.11375 4.2475 -3.2275 4.495 -4.375 4.75 C-8.04615198 5.61005339 -8.04615198 5.61005339 -9.4375 8.125 C-9.623125 8.74375 -9.80875 9.3625 -10 10 C-12.69378051 7.48580485 -14.44805246 5.32759923 -16 2 C-10.54538831 0.61470179 -5.63281599 -0.2396943 0 0 Z " fill="#1E1E1E" transform="translate(335,377)"/>
<path d="M0 0 C1.98 0.495 1.98 0.495 4 1 C4 1.66 4 2.32 4 3 C5.258125 2.773125 6.51625 2.54625 7.8125 2.3125 C9.95703125 1.92578125 9.95703125 1.92578125 12 2 C13.76171875 3.48046875 13.76171875 3.48046875 15 5 C5.31399672 6.7610915 5.31399672 6.7610915 1.375 4.0625 C0.59125 3.381875 -0.1925 2.70125 -1 2 C-0.67 1.34 -0.34 0.68 0 0 Z " fill="#262626" transform="translate(221,177)"/>
<path d="M0 0 C1.32 0.66 2.64 1.32 4 2 C4 1.34 4 0.68 4 0 C4.99 0 5.98 0 7 0 C5.33248852 3.94139078 2.77289351 6.7892812 0 10 C-0.66 9.01 -1.32 8.02 -2 7 C-1.125 3.3125 -1.125 3.3125 0 0 Z " fill="#222222" transform="translate(437,417)"/>
<path d="M0 0 C2.97 1.98 2.97 1.98 6 4 C5.34 5.32 4.68 6.64 4 8 C4.66 8.66 5.32 9.32 6 10 C4.35 10.33 2.7 10.66 1 11 C0.83197949 9.54182203 0.66562857 8.0834516 0.5 6.625 C0.4071875 5.81289063 0.314375 5.00078125 0.21875 4.1640625 C0 2 0 2 0 0 Z " fill="#191718" transform="translate(177,356)"/>
<path d="M0 0 C2.125 0.9375 2.125 0.9375 4 2 C4 2.66 4 3.32 4 4 C4.66 4 5.32 4 6 4 C6.33 3.34 6.66 2.68 7 2 C7.12375 2.639375 7.2475 3.27875 7.375 3.9375 C7.58125 4.618125 7.7875 5.29875 8 6 C8.66 6.33 9.32 6.66 10 7 C9.67 7.99 9.34 8.98 9 10 C7.72689688 9.06558465 6.456612 8.12732889 5.1875 7.1875 C4.47980469 6.66542969 3.77210938 6.14335937 3.04296875 5.60546875 C1.21468607 4.16871123 -0.39896688 2.68184237 -2 1 C-1.34 0.67 -0.68 0.34 0 0 Z " fill="#262626" transform="translate(152,371)"/>
<path d="M0 0 C4.455 0.99 4.455 0.99 9 2 C8.01 2.495 8.01 2.495 7 3 C7 3.66 7 4.32 7 5 C5.35 4.67 3.7 4.34 2 4 C1.67 4.66 1.34 5.32 1 6 C0.34 5.67 -0.32 5.34 -1 5 C-0.67 3.35 -0.34 1.7 0 0 Z " fill="#252324" transform="translate(330,80)"/>
<path d="M0 0 C2.64 0 5.28 0 8 0 C5.42215154 2.64752004 3.08351902 4.94432065 0 7 C-0.66 6.34 -1.32 5.68 -2 5 C-1.34 3.35 -0.68 1.7 0 0 Z " fill="#252424" transform="translate(410,445)"/>
<path d="M0 0 C0 1.65 0 3.3 0 5 C-3.77545388 3.90931332 -6.47043472 3.0916909 -9 0 C-5.93109813 -1.53445094 -3.29905734 -0.54984289 0 0 Z " fill="#262425" transform="translate(183,468)"/>
<path d="M0 0 C1.43931117 0.45261358 2.87638999 0.91232979 4.3125 1.375 C5.11300781 1.63023437 5.91351563 1.88546875 6.73828125 2.1484375 C9 3 9 3 12 5 C6.42028977 5.92995171 4.69385214 6.12923476 0 3 C0 2.01 0 1.02 0 0 Z " fill="#201E1F" transform="translate(175,433)"/>
<path d="M0 0 C0.66 0.33 1.32 0.66 2 1 C1.67 1.33 1.34 1.66 1 2 C1.99 2.66 2.98 3.32 4 4 C0.09971775 6.60018816 -3.47434569 6.15085514 -8 6 C-8 5.67 -8 5.34 -8 5 C-6.02 5 -4.04 5 -2 5 C-2.33 4.01 -2.66 3.02 -3 2 C-2.01 1.34 -1.02 0.68 0 0 Z " fill="#2E2E2E" transform="translate(221,481)"/>
<path d="M0 0 C1.32 1.65 2.64 3.3 4 5 C3.67 5.66 3.34 6.32 3 7 C2.01 6.34 1.02 5.68 0 5 C0.33 6.32 0.66 7.64 1 9 C-0.32 9 -1.64 9 -3 9 C-2.44271087 5.65626525 -1.64826111 2.96687001 0 0 Z " fill="#201F1F" transform="translate(148,395)"/>
<path d="M0 0 C2.31 0.33 4.62 0.66 7 1 C5.515 3.475 5.515 3.475 4 6 C2.0625 5.6875 2.0625 5.6875 0 5 C-0.33 4.01 -0.66 3.02 -1 2 C-0.67 1.34 -0.34 0.68 0 0 Z " fill="#222222" transform="translate(234,378)"/>
<path d="M0 0 C1.32 0.66 2.64 1.32 4 2 C3.67 2.33 3.34 2.66 3 3 C3.99 3.33 4.98 3.66 6 4 C3.36 4.99 0.72 5.98 -2 7 C-2 3.89448334 -1.4606285 2.64738916 0 0 Z " fill="#252324" transform="translate(365,473)"/>
<path d="M0 0 C2.97 0.495 2.97 0.495 6 1 C6.33 2.98 6.66 4.96 7 7 C3.17053157 5.54744301 1.87949705 3.57104439 0 0 Z " fill="#211F20" transform="translate(161,381)"/>
<path d="M0 0 C1.43931117 0.45261358 2.87638999 0.91232979 4.3125 1.375 C5.11300781 1.63023437 5.91351563 1.88546875 6.73828125 2.1484375 C9 3 9 3 12 5 C9.31143576 6.00821159 7.58296785 6.22736824 4.88671875 5.17578125 C2.89205069 4.16604698 0.9353228 3.11893353 -1 2 C-0.67 1.34 -0.34 0.68 0 0 Z " fill="#2D2B2C" transform="translate(188,474)"/>
<path d="M0 0 C2 1 2 1 3 2 C2.71395102 3.67542976 2.38218767 5.34385343 2 7 C0.02 5.68 -1.96 4.36 -4 3 C-2.68 2.01 -1.36 1.02 0 0 Z " fill="#252525" transform="translate(156,451)"/>
<path d="M0 0 C2.31 0.33 4.62 0.66 7 1 C6.34 1.66 5.68 2.32 5 3 C5.32041397 5.60280568 5.32041397 5.60280568 6 8 C1.125 3.375 1.125 3.375 0 0 Z " fill="#242323" transform="translate(109,408)"/>
<path d="M0 0 C1.32 1.65 2.64 3.3 4 5 C3.34 5.66 2.68 6.32 2 7 C-0.475 6.01 -0.475 6.01 -3 5 C-1.125 1.125 -1.125 1.125 0 0 Z " fill="#222222" transform="translate(454,167)"/>
<path d="M0 0 C0.12375 0.639375 0.2475 1.27875 0.375 1.9375 C0.58125 2.618125 0.7875 3.29875 1 4 C1.66 4.33 2.32 4.66 3 5 C2.34 5 1.68 5 1 5 C1.99 6.485 1.99 6.485 3 8 C2.67 8.99 2.34 9.98 2 11 C0.4375 10 0.4375 10 -1 8 C-0.96726452 5.23385218 -0.49404328 2.73969453 0 0 Z " fill="#323232" transform="translate(394,211)"/>
<path d="M0 0 C1.231394 2.46278801 1.07159196 4.2795055 1 7 C0.360625 7.12375 -0.27875 7.2475 -0.9375 7.375 C-1.9584375 7.684375 -1.9584375 7.684375 -3 8 C-3.33 8.66 -3.66 9.32 -4 10 C-4.66 9.67 -5.32 9.34 -6 9 C-4.02 6.03 -2.04 3.06 0 0 Z " fill="#2D2D2D" transform="translate(109,162)"/>
<path d="M0 0 C1.32342458 3.97027374 0.36639254 6.11656858 -1 10 C-1.99 10.495 -1.99 10.495 -3 11 C-2.8864371 9.35333797 -2.75882619 7.70763918 -2.625 6.0625 C-2.55539062 5.14597656 -2.48578125 4.22945313 -2.4140625 3.28515625 C-2.27742188 2.53105469 -2.14078125 1.77695312 -2 1 C-1.34 0.67 -0.68 0.34 0 0 Z " fill="#2D2D2D" transform="translate(414,297)"/>
<path d="M0 0 C0.99 0.33 1.98 0.66 3 1 C3.73046875 2.84765625 3.73046875 2.84765625 4.1875 5.0625 C4.34605469 5.79597656 4.50460937 6.52945313 4.66796875 7.28515625 C4.83232422 8.13400391 4.83232422 8.13400391 5 9 C4.01 9 3.02 9 2 9 C-0.25076614 5.62385079 0 3.93268335 0 0 Z " fill="#272526" transform="translate(474,209)"/>
<path d="M0 0 C-0.33 0.66 -0.66 1.32 -1 2 C-2.32 2 -3.64 2 -5 2 C-5 2.66 -5 3.32 -5 4 C-6.65 3.67 -8.3 3.34 -10 3 C-6.84439813 -0.15560187 -4.30999015 -1.43666338 0 0 Z " fill="#2C2C2C" transform="translate(206,89)"/>
<path d="M0 0 C2.475 0.495 2.475 0.495 5 1 C3.25 5.875 3.25 5.875 1 7 C0.67 4.69 0.34 2.38 0 0 Z " fill="#211F20" transform="translate(444,409)"/>
<path d="M0 0 C2.375 0.3125 2.375 0.3125 5 1 C5.66 1.99 6.32 2.98 7 4 C4.03 3.505 4.03 3.505 1 3 C1.33 3.66 1.66 4.32 2 5 C1.01 4.67 0.02 4.34 -1 4 C-0.67 2.68 -0.34 1.36 0 0 Z " fill="#2B292A" transform="translate(170,352)"/>
<path d="M0 0 C0.8971875 0.5259375 0.8971875 0.5259375 1.8125 1.0625 C-1.32248292 2.92026765 -3.56221432 3.26390476 -7.1875 3.0625 C-6.5275 2.7325 -5.8675 2.4025 -5.1875 2.0625 C-5.1875 1.4025 -5.1875 0.7425 -5.1875 0.0625 C-2.1875 -0.9375 -2.1875 -0.9375 0 0 Z " fill="#303030" transform="translate(234.1875,179.9375)"/>
<path d="M0 0 C-0.33 1.32 -0.66 2.64 -1 4 C-1.99 4 -2.98 4 -4 4 C-4.66 4.66 -5.32 5.32 -6 6 C-6 3 -6 3 -4.6875 1.3125 C-3 0 -3 0 0 0 Z " fill="#2B2A2A" transform="translate(143,127)"/>
<path d="M0 0 C-0.99 0 -1.98 0 -3 0 C-2.67 0.99 -2.34 1.98 -2 3 C-2.66 3.66 -3.32 4.32 -4 5 C-4.99 3.35 -5.98 1.7 -7 0 C-3.86650268 -1.04449911 -3.01031744 -0.93423645 0 0 Z " fill="#2F2F2F" transform="translate(326,379)"/>
<path d="M0 0 C1.65 0.99 3.3 1.98 5 3 C4.01 4.485 4.01 4.485 3 6 C2.67 5.67 2.34 5.34 2 5 C1.34 5.66 0.68 6.32 0 7 C0 4.69 0 2.38 0 0 Z " fill="#282627" transform="translate(177,356)"/>
<path d="M0 0 C1.32 1.32 2.64 2.64 4 4 C2.02 4.99 2.02 4.99 0 6 C-0.66 4.35 -1.32 2.7 -2 1 C-1.34 0.67 -0.68 0.34 0 0 Z " fill="#292728" transform="translate(404,229)"/>
</svg>
